<?xml version="1.0" encoding="utf-8"?>
<!-- Generator: Adobe Illustrator 16.0.0, SVG Export Plug-In . SVG Version: 6.00 Build 0)  -->
<!DOCTYPE svg PUBLIC "-//W3C//DTD SVG 1.1//EN" "http://www.w3.org/Graphics/SVG/1.1/DTD/svg11.dtd">
<svg version="1.1" id="Livello_1" xmlns="http://www.w3.org/2000/svg" xmlns:xlink="http://www.w3.org/1999/xlink" x="0px" y="0px"
	 width="500px" height="500px" viewBox="0 0 500 500" enable-background="new 0 0 500 500" xml:space="preserve">
<g enable-background="new    ">
	<path d="M84.324,362.301v17.473c0,2.719-0.193,4.951-0.58,6.697s-1.025,3.299-1.916,4.658c-2.062,3.07-5.25,4.605-9.562,4.605
		c-4.312,0-7.488-1.535-9.527-4.605c-1.688-2.531-2.531-6.316-2.531-11.355v-17.473c0-2.695,0.193-4.922,0.58-6.68
		s1.037-3.316,1.951-4.676c2.039-3.07,5.215-4.605,9.527-4.605c4.312,0,7.5,1.535,9.562,4.605c1.078,1.641,1.77,3.469,2.074,5.484
		C84.184,358.234,84.324,360.191,84.324,362.301z M67.168,360.824v20.426c0,2.039,0.082,3.398,0.246,4.078
		c0.656,2.531,2.273,3.797,4.852,3.797c1.992,0,3.398-0.75,4.219-2.25c0.469-0.844,0.738-1.723,0.809-2.637
		c0.047-0.727,0.07-1.723,0.07-2.988v-20.426c0-2.062-0.083-3.422-0.246-4.078c-0.656-2.531-2.273-3.797-4.852-3.797
		c-1.992,0-3.398,0.75-4.219,2.25c-0.469,0.844-0.738,1.723-0.809,2.637C67.191,358.586,67.168,359.582,67.168,360.824z"/>
	<path d="M106.824,347.043v47.988h-6.961v-36.738h-6.961v-4.395c1.828-0.797,3.574-1.746,5.238-2.848
		c2.016-1.43,3.539-2.766,4.57-4.008H106.824z"/>
</g>
<g enable-background="new    ">
	<path d="M71.75,431.659h-6.82l-1.289,6.961h-4.852l6.141-31.992h6.797l6.469,31.992h-5.086L71.75,431.659z M70.906,427.089
		l-2.625-14.32l-2.555,14.32H70.906z"/>
	<path d="M105.734,414.151L101,415.558c-0.766-3.172-2.188-4.758-4.266-4.758c-0.891,0-1.641,0.297-2.25,0.891
		c-0.641,0.625-0.961,1.414-0.961,2.367c0,1.172,0.445,2.242,1.336,3.211c0.578,0.625,1.992,1.797,4.242,3.516
		c2.297,1.781,3.891,3.211,4.781,4.289c1.375,1.672,2.062,3.633,2.062,5.883c0,2.359-0.789,4.297-2.367,5.812
		c-1.609,1.547-3.742,2.32-6.398,2.32c-5.469,0-8.711-3-9.727-9l4.734-1.383c0.656,3.828,2.32,5.742,4.992,5.742
		c1.125,0,2.016-0.344,2.672-1.031c0.656-0.672,0.984-1.547,0.984-2.625c0-1.125-0.414-2.156-1.242-3.094
		c-0.688-0.797-1.859-1.844-3.516-3.141c-2.406-1.875-3.852-3.047-4.336-3.516c-2.219-2.141-3.328-4.477-3.328-7.008
		c0-2.516,0.898-4.508,2.695-5.977c1.516-1.266,3.398-1.898,5.648-1.898C101.367,406.159,104.359,408.823,105.734,414.151z"/>
	<path d="M114.359,406.628v31.992h-4.969v-31.992H114.359z"/>
	<path d="M136.953,406.628v31.992H132.5l-8.578-21.281v21.281h-4.711v-31.992h4.969l8.062,19.898v-19.898H136.953z"/>
	<path d="M149.961,422.729h9.023v15.891h-2.578l-0.867-2.719c-0.672,0.906-1.336,1.586-1.992,2.039
		c-1.141,0.766-2.484,1.148-4.031,1.148c-1.469,0-2.785-0.332-3.949-0.996s-2.051-1.582-2.66-2.754
		c-0.672-1.297-1.078-2.703-1.219-4.219c-0.125-1.281-0.188-2.719-0.188-4.312v-8.812c0-3.062,0.195-5.188,0.586-6.375
		c0.672-2.109,1.922-3.617,3.75-4.523c1.266-0.625,2.703-0.938,4.312-0.938c3.562,0,6.078,1.422,7.547,4.266
		c0.781,1.5,1.164,3.703,1.148,6.609h-4.969c0-1.891-0.188-3.266-0.562-4.125c-0.625-1.406-1.688-2.109-3.188-2.109
		c-1.391,0-2.375,0.547-2.953,1.641c-0.344,0.656-0.547,1.359-0.609,2.109c-0.062,0.703-0.094,1.531-0.094,2.484v9.773
		c0,2.391,0.18,4.125,0.539,5.203c0.531,1.625,1.648,2.438,3.352,2.438c1.438,0,2.438-0.641,3-1.922
		c0.438-0.984,0.656-2.461,0.656-4.43v-1.289h-4.055V422.729z"/>
	<path d="M168.312,406.628v31.992h-4.969v-31.992H168.312z"/>
	<path d="M190.906,406.628v31.992h-4.453l-8.578-21.281v21.281h-4.711v-31.992h4.969l8.062,19.898v-19.898H190.906z"/>
	<path d="M203.914,422.729h9.023v15.891h-2.578l-0.867-2.719c-0.672,0.906-1.336,1.586-1.992,2.039
		c-1.141,0.766-2.484,1.148-4.031,1.148c-1.469,0-2.785-0.332-3.949-0.996s-2.051-1.582-2.66-2.754
		c-0.672-1.297-1.078-2.703-1.219-4.219c-0.125-1.281-0.188-2.719-0.188-4.312v-8.812c0-3.062,0.195-5.188,0.586-6.375
		c0.672-2.109,1.922-3.617,3.75-4.523c1.266-0.625,2.703-0.938,4.312-0.938c3.562,0,6.078,1.422,7.547,4.266
		c0.781,1.5,1.164,3.703,1.148,6.609h-4.969c0-1.891-0.188-3.266-0.562-4.125c-0.625-1.406-1.688-2.109-3.188-2.109
		c-1.391,0-2.375,0.547-2.953,1.641c-0.344,0.656-0.547,1.359-0.609,2.109c-0.062,0.703-0.094,1.531-0.094,2.484v9.773
		c0,2.391,0.18,4.125,0.539,5.203c0.531,1.625,1.648,2.438,3.352,2.438c1.438,0,2.438-0.641,3-1.922
		c0.438-0.984,0.656-2.461,0.656-4.43v-1.289h-4.055V422.729z"/>
</g>
</svg>
